<svg xmlns="http://www.w3.org/2000/svg" viewBox="0 0 500 500"><defs><style>.cls-1{fill:#237ec6;}.cls-2{fill:none;}</style></defs><title>アセット 3</title><g id="レイヤー_2" data-name="レイヤー 2"><g id="レイヤー_6" data-name="レイヤー 6"><polygon class="cls-1" points="400.53 161.47 400.53 143.79 382.85 143.79 382.85 161.47 382.85 179.15 400.53 179.15 400.53 161.47"/><polygon class="cls-1" points="365.18 126.11 347.6 126.11 347.6 108.44 329.92 108.44 312.25 108.44 312.25 126.11 329.92 126.11 347.5 126.11 347.5 143.79 365.18 143.79 382.85 143.79 382.85 126.11 365.18 126.11"/><polygon class="cls-1" points="206.28 91.04 206.28 90.76 206.28 73.36 188.6 73.36 188.6 90.76 188.6 91.04 188.6 108.44 206.28 108.44 206.28 91.04"/><polygon class="cls-1" points="118 161.47 118 143.79 100.32 143.79 100.32 161.47 100.32 179.15 118 179.15 118 161.47"/><polygon class="cls-1" points="241.53 73.36 241.53 90.76 241.53 91.04 241.53 108.44 223.96 108.44 206.28 108.44 206.28 126.11 223.96 126.11 241.64 126.11 241.64 108.44 259.21 108.44 259.21 91.04 259.21 90.76 259.21 73.36 241.64 73.36 241.64 55.69 223.96 55.69 206.28 55.69 206.28 73.36 223.96 73.36 241.53 73.36"/><polygon class="cls-1" points="153.35 143.79 153.35 126.11 170.93 126.11 188.6 126.11 188.6 108.44 170.93 108.44 153.25 108.44 153.25 126.11 135.68 126.11 118 126.11 118 143.79 135.68 143.79 153.35 143.79"/><rect class="cls-1" x="126.78" y="250.5" width="35.25" height="35.04"/><rect class="cls-1" x="338.66" y="285.24" width="35.29" height="53.01"/><path class="cls-1" d="M435.4,320.5V249.86H418.13V214.5h.08V179.15H400.53V214.5H382.85V179.15H365.23V161.47h-35.3V144h-159v17.42H135.67v17.68H118V214.5H100.32V179.15H82.64v70.71H65v70.71H47.29v35.36H82.64v35.36h17.68V409h35.36v17.68H188.6v17.68H312.25V426.64h53V409H400.5V391.28h17.63V355.93h34.59V320.5ZM179.86,232.82V303H126.78v53H109.11V232.82Zm17.48,0H215v17.63H197.34ZM215,355.93H197.34V267.54H215Zm89.62-88.31V303H285.37V285.19h-35v53.06h35V320.62h19.28v35.3h-72V267.62ZM321,355.93V267.51h70.61v.08l0,88.33Z"/><polygon class="cls-1" points="294.46 73.36 294.46 90.76 294.46 91.04 294.46 108.44 276.89 108.44 259.21 108.44 259.21 126.11 276.89 126.11 294.57 126.11 294.57 108.44 312.14 108.44 312.14 91.04 312.14 90.76 312.14 73.36 294.57 73.36 294.57 55.69 276.89 55.69 259.21 55.69 259.21 73.36 276.89 73.36 294.46 73.36"/><rect class="cls-2" width="500" height="500"/></g></g></svg>